<?xml version="1.0" standalone="no"?>
<!DOCTYPE svg PUBLIC "-//W3C//DTD SVG 20010904//EN"
 "http://www.w3.org/TR/2001/REC-SVG-20010904/DTD/svg10.dtd">
<svg version="1.0" xmlns="http://www.w3.org/2000/svg"
 width="225.000000pt" height="225.000000pt" viewBox="0 0 225.000000 225.000000"
 preserveAspectRatio="xMidYMid meet">
<metadata>
Created by potrace 1.14, written by Peter Selinger 2001-2017
</metadata>
<g transform="translate(0.000000,225.000000) scale(0.100000,-0.100000)"
fill="#000000" stroke="none">
<path d="M1053 1772 l-823 -226 0 -595 c0 -573 1 -597 20 -628 10 -18 34 -40
52 -50 31 -17 81 -18 823 -18 742 0 792 1 823 18 18 10 42 32 52 50 19 31 20
54 20 520 l0 487 -737 1 -738 1 105 30 c58 16 375 103 704 193 330 90 603 168
608 173 5 5 -5 59 -23 128 -31 114 -44 145 -58 143 -3 -1 -376 -103 -828 -227z
m470 -19 c64 -49 116 -90 117 -93 0 -3 -63 -22 -140 -43 l-139 -38 -121 92
c-66 51 -119 94 -117 95 5 5 252 73 268 73 9 1 69 -38 132 -86z m-612 -165
c66 -50 116 -95 112 -98 -5 -4 -28 -12 -53 -19 -25 -6 -84 -22 -131 -35 l-86
-24 -122 94 -122 93 53 15 c76 22 222 64 226 65 2 1 57 -40 123 -91z m179
-286 c0 -4 -48 -44 -107 -87 l-107 -80 -193 -5 c-106 -3 -192 -2 -191 2 2 4
54 45 116 92 l113 86 184 0 c102 0 185 -4 185 -8z m750 1 c-1 -5 -49 -44 -108
-88 l-107 -80 -197 -5 c-152 -4 -195 -2 -185 7 7 6 59 48 117 92 l105 81 188
0 c103 0 187 -3 187 -7z m-23 -444 c6 -6 9 -18 6 -25 -4 -12 -119 -14 -698
-14 -471 0 -696 3 -700 10 -4 6 -1 17 5 25 11 13 110 15 694 15 491 0 685 -3
693 -11z m1 -226 l3 -23 -696 0 c-629 0 -696 2 -702 16 -3 9 0 20 8 25 8 5
313 8 699 6 l685 -2 3 -22z m-1 -194 c6 -6 9 -18 6 -25 -4 -12 -119 -14 -698
-14 -471 0 -696 3 -700 10 -4 6 -1 17 5 25 11 13 110 15 694 15 491 0 685 -3
693 -11z"/>
</g>
</svg>
